<svg xmlns="http://www.w3.org/2000/svg" viewBox="0 0 90 90"><defs><style>.cls-1{fill:#3a3a3a;opacity:0.6;}.cls-2{fill:#fff;}.cls-3{fill:#e1e1e1;}</style></defs><title>Generator</title><g id="Layer_2" data-name="Layer 2"><g id="CONTENT"><path class="cls-1" d="M22.36,22.32h0a32,32,0,1,1,0,45.37,32.13,32.13,0,0,1,0-45.37"/><path class="cls-2" d="M34.92,49.73a.18.18,0,0,1,0,.1.2.2,0,0,1-.11.07l-.19,0-.31,0-.3,0-.2,0a.2.2,0,0,1-.1-.07.18.18,0,0,1,0-.1V41.47h0l-3.34,8.29a.25.25,0,0,1-.06.09.32.32,0,0,1-.12.06l-.18,0h-.52l-.18,0-.11-.06a.19.19,0,0,1-.05-.08l-3.19-8.29h0v8.25a.17.17,0,0,1,0,.1.19.19,0,0,1-.11.07l-.2,0-.31,0-.3,0-.19,0a.18.18,0,0,1-.1-.07.2.2,0,0,1,0-.1V41a.53.53,0,0,1,.16-.44.57.57,0,0,1,.36-.13h.77a1.76,1.76,0,0,1,.42,0,.9.9,0,0,1,.31.14.8.8,0,0,1,.22.24,1.74,1.74,0,0,1,.16.34l2.71,6.86h0l2.82-6.84a2,2,0,0,1,.18-.37,1,1,0,0,1,.21-.25.74.74,0,0,1,.26-.13,1.21,1.21,0,0,1,.33,0h.81a.66.66,0,0,1,.21,0,.43.43,0,0,1,.17.1.54.54,0,0,1,.12.18.67.67,0,0,1,0,.26Z"/><path class="cls-2" d="M44,49.4a1.6,1.6,0,0,1,0,.23.49.49,0,0,1-.05.16.25.25,0,0,1-.08.1.2.2,0,0,1-.11,0H39.19a.52.52,0,0,1-.32-.11.47.47,0,0,1-.15-.4V41a.47.47,0,0,1,.15-.4.52.52,0,0,1,.32-.11h4.5a.2.2,0,0,1,.11,0,.21.21,0,0,1,.08.1.75.75,0,0,1,0,.16,1.39,1.39,0,0,1,0,.25,1.29,1.29,0,0,1,0,.23.68.68,0,0,1,0,.16.21.21,0,0,1-.08.09.2.2,0,0,1-.11,0H40v3h3.18a.19.19,0,0,1,.11,0,.27.27,0,0,1,.08.09.47.47,0,0,1,0,.16,1.73,1.73,0,0,1,0,.24,1.52,1.52,0,0,1,0,.23.46.46,0,0,1,0,.15.21.21,0,0,1-.08.08l-.11,0H40v3.39h3.76a.2.2,0,0,1,.11,0,.26.26,0,0,1,.08.09.45.45,0,0,1,.05.16A1.73,1.73,0,0,1,44,49.4Z"/><path class="cls-2" d="M54.48,49.4a.57.57,0,0,1,0,.25.49.49,0,0,1-.13.17.5.5,0,0,1-.18.1l-.2,0h-.42a1.32,1.32,0,0,1-.34,0,.76.76,0,0,1-.28-.15,1.46,1.46,0,0,1-.26-.29,3.69,3.69,0,0,1-.28-.47l-2.89-5.39q-.23-.42-.46-.87t-.43-.89h0q0,.53,0,1.08t0,1.09v5.72a.17.17,0,0,1,0,.1.19.19,0,0,1-.1.07l-.19,0-.31,0-.31,0-.19,0a.19.19,0,0,1-.1-.07.17.17,0,0,1,0-.1V41a.49.49,0,0,1,.17-.42.6.6,0,0,1,.36-.12h.62a1.55,1.55,0,0,1,.37,0,.77.77,0,0,1,.26.12,1.06,1.06,0,0,1,.23.23,3.21,3.21,0,0,1,.23.38l2.22,4.16.4.74.37.71.35.69.34.68h0q0-.58,0-1.21t0-1.2V40.65a.16.16,0,0,1,0-.1.25.25,0,0,1,.1-.08l.19,0h.61a.66.66,0,0,1,.19,0,.25.25,0,0,1,.1.08.16.16,0,0,1,0,.1Z"/><path class="cls-2" d="M65.4,46.42A4.38,4.38,0,0,1,65.15,48a3.15,3.15,0,0,1-.72,1.15,3,3,0,0,1-1.14.71,4.52,4.52,0,0,1-1.53.24,4.27,4.27,0,0,1-1.43-.23,3,3,0,0,1-1.11-.67,2.94,2.94,0,0,1-.71-1.11,4.38,4.38,0,0,1-.25-1.54V40.63a.18.18,0,0,1,0-.1.2.2,0,0,1,.1-.07l.19,0,.31,0,.3,0,.19,0a.2.2,0,0,1,.1.07.18.18,0,0,1,0,.1v5.73a3.69,3.69,0,0,0,.16,1.15,2.18,2.18,0,0,0,.46.82,1.94,1.94,0,0,0,.73.49,2.66,2.66,0,0,0,1,.17,2.77,2.77,0,0,0,1-.16,1.86,1.86,0,0,0,.72-.48,2.15,2.15,0,0,0,.45-.8,3.54,3.54,0,0,0,.16-1.11V40.63a.18.18,0,0,1,0-.1.2.2,0,0,1,.1-.07l.19,0,.3,0,.3,0,.19,0a.21.21,0,0,1,.1.07.16.16,0,0,1,0,.1Z"/><path class="cls-3" d="M89.39,52.46l-5.26-4.65a39.87,39.87,0,0,0,0-5.63l5.25-4.64a1.81,1.81,0,0,0,.55-1.85l-1.41-5.07a1.81,1.81,0,0,0-1.42-1.3l-6.65-1.22a38.71,38.71,0,0,0-2.93-5.2l2.16-6.43a1.81,1.81,0,0,0-.44-1.87l-3.8-3.77a1.81,1.81,0,0,0-1.84-.43l-6.43,2.12A38.93,38.93,0,0,0,62.1,9.63L60.8,2.82A1.81,1.81,0,0,0,59.47,1.4L54.25.06a1.81,1.81,0,0,0-1.81.56L47.9,5.83a39.57,39.57,0,0,0-5.81,0L37.56.62A1.81,1.81,0,0,0,35.75.06L30.53,1.4A1.81,1.81,0,0,0,29.2,2.82l-1.3,6.82a38.93,38.93,0,0,0-5.07,2.92l-6.43-2.12a1.81,1.81,0,0,0-1.84.43l-3.8,3.77a1.81,1.81,0,0,0-.44,1.87l2.16,6.43a38.73,38.73,0,0,0-2.93,5.2L2.91,29.34a1.81,1.81,0,0,0-1.42,1.29L.08,35.7a1.81,1.81,0,0,0,.55,1.85l5.25,4.64a39.84,39.84,0,0,0,0,5.64L.61,52.46a1.81,1.81,0,0,0-.55,1.82L1.5,59.73A1.81,1.81,0,0,0,2.92,61l6.82,1.25a38.74,38.74,0,0,0,2.74,4.78l-2.18,6.47a1.81,1.81,0,0,0,.4,1.82l3.82,4.06a1.81,1.81,0,0,0,2,.45l6.38-2.41a38.91,38.91,0,0,0,5,2.9l1.3,6.82a1.81,1.81,0,0,0,1.33,1.41l5.22,1.34a1.81,1.81,0,0,0,1.81-.56l4.53-5.21a39.63,39.63,0,0,0,5.81,0l4.53,5.21a1.81,1.81,0,0,0,1.81.56l5.22-1.34a1.81,1.81,0,0,0,1.33-1.41l1.3-6.82a38.92,38.92,0,0,0,5-2.9l6.38,2.41a1.81,1.81,0,0,0,2-.45l3.82-4.06a1.81,1.81,0,0,0,.4-1.82l-2.18-6.47a38.7,38.7,0,0,0,2.74-4.78L87.08,61a1.81,1.81,0,0,0,1.42-1.32l1.44-5.44A1.81,1.81,0,0,0,89.39,52.46ZM66.21,66.25A30,30,0,1,1,23.79,23.75h0A30,30,0,0,1,66.21,66.25Z"/></g></g></svg>
